<svg width="149" height="81" viewBox="0 0 149 81" fill="none" xmlns="http://www.w3.org/2000/svg">
<path d="M89.12 12.6C89.12 15.48 88.48 17.96 87.2 20.04C86 22.12 84.44 23.72 82.52 24.84C80.6 25.88 78.68 26.4 76.76 26.4C74.84 26.4 73.08 26 71.48 25.2C69.96 24.4 68.68 23.32 67.64 21.96L38.72 70.68C36.56 74.36 34.56 77 32.72 78.6C30.88 80.2 28.8 81 26.48 81C24 81 22 80.2 20.48 78.6C19.04 76.92 18 74.28 17.36 70.68L7.28 15.24C7.04 13.8 6.6 12.64 5.96 11.76C5.32 10.88 4.48 9.92 3.44 8.88C2.64 8.16 2.08 7.6 1.76 7.2C1.44 6.72 1.28 6.16 1.28 5.52C0.880001 2.56 2.64 1.08 6.56 1.08H36.56C38.4 1.08 39.8 1.48 40.76 2.28C41.72 3 42.16 4 42.08 5.27999C42.08 6 41.92 6.59999 41.6 7.07999C41.36 7.56 40.92 8.16 40.28 8.88C39.56 9.68 39 10.44 38.6 11.16C38.2 11.88 38 12.76 38 13.8C38 14.28 38.04 14.68 38.12 15L42.68 42.96L58.64 14.64C61.44 9.52 64.2 5.92 66.92 3.84C69.64 1.68 73 0.599998 77 0.599998C80.68 0.599998 83.6 1.68 85.76 3.84C88 5.92 89.12 8.83999 89.12 12.6ZM141.368 50.04C143.608 50.04 145.288 50.52 146.408 51.48C147.608 52.36 148.208 53.64 148.208 55.32C148.208 56.04 148.088 56.84 147.848 57.72L143.888 71.76C142.848 75.2 141.368 77.6 139.448 78.96C137.608 80.32 134.848 81 131.168 81H74.7678C73.0878 81 71.8078 80.72 70.9278 80.16C69.9678 79.6 69.4878 78.84 69.4878 77.88C69.4878 77.4 69.6078 76.88 69.8478 76.32C70.0878 75.68 70.4878 75.16 71.0478 74.76C71.6078 74.28 72.2078 73.84 72.8478 73.44C74.1278 72.64 75.1678 71.84 75.9678 71.04C76.7678 70.16 77.4478 68.76 78.0078 66.84L92.6478 15.12C92.9678 14.08 93.1278 13.08 93.1278 12.12C93.1278 11.24 92.9678 10.52 92.6478 9.96C92.4078 9.32 92.0478 8.6 91.5678 7.8C90.8478 6.76 90.4878 5.92 90.4878 5.27999C90.4878 5.04 90.5678 4.6 90.7278 3.96C91.0478 2.92 91.7278 2.2 92.7678 1.8C93.8878 1.32 95.5678 1.08 97.8078 1.08H126.008C127.688 1.08 128.968 1.36 129.848 1.92C130.808 2.39999 131.288 3.11999 131.288 4.08C131.288 4.48 131.168 5 130.928 5.64C130.688 6.2 130.328 6.72 129.848 7.2C129.448 7.6 129.048 7.92 128.648 8.15999C128.328 8.32 128.088 8.48 127.928 8.63999C126.648 9.35999 125.608 10.16 124.808 11.04C124.008 11.92 123.328 13.28 122.768 15.12L107.288 69.48H114.728C116.568 69.48 118.128 69.16 119.408 68.52C120.768 67.88 122.168 66.68 123.608 64.92L131.888 55.08C133.408 53.32 134.848 52.04 136.208 51.24C137.648 50.44 139.368 50.04 141.368 50.04Z" fill="white"/>
</svg>
