<svg width="147" height="168" viewBox="0 0 147 168" fill="none" xmlns="http://www.w3.org/2000/svg">
<g style="mix-blend-mode:multiply">
<path d="M61.1534 78.5L39.6534 40.5C39.6534 40.5 6.65338 98 2.15334 106C-2.3467 114 0.153344 126 10.1533 131.5C20.1534 137 30.1534 133 34.1534 126C38.1534 119 61.1534 78.5 61.1534 78.5Z" fill="white"/>
</g>
<g style="mix-blend-mode:multiply">
<path d="M67.5623 95.7877L45.4034 133.407C45.4034 133.407 111.7 133.236 120.878 133.133C130.056 133.03 139.199 124.865 138.962 113.455C138.725 102.045 130.261 95.3845 122.199 95.4204C114.136 95.4563 67.5623 95.7877 67.5623 95.7877Z" fill="white"/>
</g>
<g style="mix-blend-mode:multiply">
<path d="M79.783 80.748L123.442 81.1285C123.442 81.1285 90.1455 23.7997 85.4673 15.9025C80.7892 8.00536 69.1468 4.17047 59.3837 10.0807C49.6206 15.991 48.0847 26.6512 52.1468 33.6153C56.209 40.5794 79.783 80.748 79.783 80.748Z" fill="white"/>
</g>
</svg>
