<svg id="visual" viewBox="0 0 960 540" width="960" height="540" xmlns="http://www.w3.org/2000/svg" xmlns:xlink="http://www.w3.org/1999/xlink" version="1.1"><rect x="0" y="0" width="960" height="540" fill="#fffefc"></rect><defs><linearGradient id="grad1_0" x1="43.8%" y1="100%" x2="100%" y2="0%"><stop offset="14.444444444444446%" stop-color="#ffbc00" stop-opacity="1"></stop><stop offset="85.55555555555554%" stop-color="#ffbc00" stop-opacity="1"></stop></linearGradient></defs><defs><linearGradient id="grad1_1" x1="43.8%" y1="100%" x2="100%" y2="0%"><stop offset="14.444444444444446%" stop-color="#ffbc00" stop-opacity="1"></stop><stop offset="85.55555555555554%" stop-color="#ffde92" stop-opacity="1"></stop></linearGradient></defs><defs><linearGradient id="grad1_2" x1="43.8%" y1="100%" x2="100%" y2="0%"><stop offset="14.444444444444446%" stop-color="#fffefc" stop-opacity="1"></stop><stop offset="85.55555555555554%" stop-color="#ffde92" stop-opacity="1"></stop></linearGradient></defs><defs><linearGradient id="grad2_0" x1="0%" y1="100%" x2="56.3%" y2="0%"><stop offset="14.444444444444446%" stop-color="#ffbc00" stop-opacity="1"></stop><stop offset="85.55555555555554%" stop-color="#ffbc00" stop-opacity="1"></stop></linearGradient></defs><defs><linearGradient id="grad2_1" x1="0%" y1="100%" x2="56.3%" y2="0%"><stop offset="14.444444444444446%" stop-color="#ffde92" stop-opacity="1"></stop><stop offset="85.55555555555554%" stop-color="#ffbc00" stop-opacity="1"></stop></linearGradient></defs><defs><linearGradient id="grad2_2" x1="0%" y1="100%" x2="56.3%" y2="0%"><stop offset="14.444444444444446%" stop-color="#ffde92" stop-opacity="1"></stop><stop offset="85.55555555555554%" stop-color="#fffefc" stop-opacity="1"></stop></linearGradient></defs><g transform="translate(960, 540)"><path d="M-378 0C-372.2 -39 -366.5 -78.1 -350.9 -114C-335.4 -150 -310 -182.8 -279.9 -203.4C-249.8 -224 -215 -232.3 -189.3 -260.5C-163.5 -288.7 -146.8 -336.6 -116.8 -359.5C-86.8 -382.4 -43.4 -380.2 0 -378L0 0Z" fill="#ffeec7"></path><path d="M-252 0C-248.2 -26 -244.3 -52.1 -234 -76C-223.6 -100 -206.7 -121.9 -186.6 -135.6C-166.6 -149.3 -143.3 -154.9 -126.2 -173.7C-109 -192.4 -97.9 -224.4 -77.9 -239.7C-57.9 -254.9 -28.9 -253.5 0 -252L0 0Z" fill="#ffcd5a"></path><path d="M-126 0C-124.1 -13 -122.2 -26 -117 -38C-111.8 -50 -103.3 -60.9 -93.3 -67.8C-83.3 -74.7 -71.7 -77.4 -63.1 -86.8C-54.5 -96.2 -48.9 -112.2 -38.9 -119.8C-28.9 -127.5 -14.5 -126.7 0 -126L0 0Z" fill="#ffbc00"></path></g><g transform="translate(0, 0)"><path d="M378 0C372.3 39 366.6 78.1 351.9 114.3C337.2 150.6 313.4 184 284.8 206.9C256.2 229.8 222.7 242.1 195.7 269.4C168.8 296.7 148.3 338.9 116.8 359.5C85.3 380.1 42.6 379 0 378L0 0Z" fill="#ffeec7"></path><path d="M252 0C248.2 26 244.4 52.1 234.6 76.2C224.8 100.4 208.9 122.7 189.8 137.9C170.8 153.2 148.5 161.4 130.5 179.6C112.5 197.8 98.9 225.9 77.9 239.7C56.8 253.4 28.4 252.7 0 252L0 0Z" fill="#ffcd5a"></path><path d="M126 0C124.1 13 122.2 26 117.3 38.1C112.4 50.2 104.5 61.3 94.9 69C85.4 76.6 74.2 80.7 65.2 89.8C56.3 98.9 49.4 113 38.9 119.8C28.4 126.7 14.2 126.3 0 126L0 0Z" fill="#ffbc00"></path></g></svg>